<svg width="278" height="205" viewBox="0 0 278 205" fill="none" xmlns="http://www.w3.org/2000/svg">
<g clip-path="url(#clip0)">
<path d="M146.497 206C219.124 206 278 196.958 278 185.804C278 174.65 219.124 165.608 146.497 165.608C73.87 165.608 14.9941 174.65 14.9941 185.804C14.9941 196.958 73.87 206 146.497 206Z" fill="#6C63FF"/>
<path d="M216.983 118.221C216.983 118.221 215.296 117.709 213.052 117.065C212.072 116.548 210.993 116.245 209.887 116.175C207.24 115.448 204.521 114.756 203.049 114.541C199.566 114.029 193.416 112.088 193.416 112.088C191.059 112.293 188.6 110.554 188.6 110.554C188.6 110.554 186.057 105.954 184.58 104.942C184.522 104.898 184.46 104.86 184.395 104.828C184.187 104.708 183.992 104.566 183.814 104.405C182.295 99.4565 178.978 99.1524 178.806 99.1358C178.165 98.4087 177.584 97.7396 177.147 97.2199C178.856 87.9802 183.971 77.6651 195.726 68.9452C195.726 68.9452 202.708 60.7783 198.65 51.3285C194.592 41.8787 193.455 41.7212 186.478 43.4823L170.706 51.0106C170.706 51.0106 166.258 52.0667 157.621 52.5533C156.902 51.1129 155.784 49.9213 154.249 49.5508C151.012 48.7711 148.19 52.1579 145.083 51.2262C142.713 50.5157 139.849 47.7206 137.52 50.4272C137.191 50.8087 136.967 51.276 136.657 51.6686C136.438 51.9364 136.181 52.1703 135.893 52.3625C130.598 52.0142 124.72 51.4336 118.271 50.5295L104.312 42.2022C104.312 42.2022 95.7079 38.1989 95.3842 48.7684C95.0606 59.3379 94.2472 64.3005 97.9792 67.1841C100.685 69.2714 109.521 83.5456 112.829 95.8182C112.343 96.5149 112.041 96.9544 112.041 96.9544C112.041 96.9544 102.61 109.736 101.894 110.043C101.847 110.062 101.827 110.131 101.83 110.236C101.692 110.535 101.277 111.107 99.9461 111.475C98.1009 111.986 89.9039 114.438 88.7752 114.438C87.6465 114.438 82.5258 114.745 82.0113 116.791C82.335 116.775 82.6594 116.782 82.9823 116.811L82.7361 117.123C81.3362 118.92 78.9792 122.268 78.8354 124.56C78.6279 127.831 79.5519 137.952 84.8828 137.85C90.2138 137.748 87.7516 122.722 87.7516 122.722L88.3768 120.886L88.3934 120.841L88.825 123.863C88.9191 123.811 89.0104 123.758 89.1017 123.714C89.5858 125.185 91.3425 126.625 96.311 126.725C96.311 126.725 103.996 127.441 109.737 138.89C114.946 149.285 132.236 158.92 144.887 158.848V175.693L143.147 176.205L120.553 176.592C120.177 176.597 119.817 176.746 119.547 177.007C119.276 177.269 119.116 177.623 119.098 177.999L118.96 180.908L125.511 181.524L105.122 186.431C105.122 186.431 101.526 186.124 102.148 191.236H107.172L107.274 190.214L148.063 187.352L150.423 187.938C150.093 189.661 149.761 191.065 149.676 191.433L149.651 191.527C149.651 191.527 149.651 191.593 149.618 191.715C149.377 191.632 149.241 191.577 149.241 191.577C148.688 192.207 148.37 198.784 148.32 199.45C148.27 200.117 150.882 200.918 150.882 200.918C152.066 201.353 156.661 200.918 156.661 200.918C158.18 200.83 162.255 199.403 162.255 199.403L161.895 192.196C161.718 192.254 161.541 192.306 161.364 192.356C161.375 192.255 161.386 192.15 161.397 192.041C161.433 191.618 161.464 191.165 161.491 190.697L179.733 195.218H180.245V196.138H185.883C185.883 196.138 186.395 192.254 184.345 191.026C182.295 189.799 171.533 185.608 171.533 185.608L174.112 185.364L184.389 184.388C184.389 184.571 184.389 184.665 184.389 184.665H185.924L185.891 184.236L188.743 183.96L192.124 184.062C192.124 184.062 192.022 179.768 189.46 179.462C189.017 179.406 187.562 179.26 185.465 179.05L184.799 170.957C186.433 168.193 190.641 176.578 190.641 176.578C190.641 176.578 190.658 176.642 190.683 176.747C190.885 177.606 191.828 181.447 192.467 181.886H192.486C192.843 182.08 193.213 182.249 193.593 182.392C195.249 183.005 196.973 183.418 198.728 183.622C202.009 184.034 209.182 181.886 210.532 181.17C210.757 181.056 210.953 180.894 211.107 180.695C211.564 180.048 211.027 179.348 211.027 179.348L209.586 179.202C210.853 178.629 211.096 176.503 208.731 176.1C208.64 176.083 208.546 176.072 208.454 176.061C208.577 175.851 208.72 175.654 208.88 175.472C207.649 175.707 204.368 174.22 204.368 174.22C203.895 174.015 203.402 173.86 202.897 173.755L202.861 173.692C202.811 173.6 202.764 173.506 202.72 173.415C202.011 171.931 201.743 170.098 201.5 168.715C200.988 165.749 194.993 154.3 194.993 154.3C194.993 154.3 192.904 149.534 191.12 144.474C193.242 142.663 194.879 140.64 195.823 138.392L197.582 135.688C198.756 134.188 199.797 132.588 200.695 130.908L202.484 128.16C205.821 127.916 211.307 127.535 214.126 127.444C214.933 131.82 215.913 136.891 216.355 138.267C217.185 140.825 221.379 137.858 223.017 131.317C224.655 124.776 216.983 118.221 216.983 118.221ZM153.8 172.157V157.781C154.677 157.643 155.643 157.479 156.68 157.294C156.061 160.963 155.297 164.319 155.297 164.319C155.364 166.114 154.357 170.106 153.8 172.157ZM186.63 167.631L187.161 167.808C188.017 168.109 188.79 168.606 189.418 169.26C188.539 168.635 187.606 168.091 186.63 167.631ZM183.368 154.413C183.368 154.413 184.599 156.766 182.14 160.65C180.295 163.564 181.39 165.273 184.046 166.592C183.172 166.291 182.279 166.048 181.374 165.865L181.504 165.939C179.34 165.467 180.397 167.396 180.397 167.396C182.547 169.481 183.543 174.748 183.993 178.925C178.35 178.372 169.481 177.507 162.313 176.816C162.435 176.101 162.517 175.38 162.556 174.657C162.556 173.429 163.89 168.624 163.89 168.624C163.89 168.624 167.721 159.708 169.835 154.339C173.833 153.249 177.748 151.876 181.551 150.23C182.538 152.395 183.368 154.413 183.368 154.413Z" fill="url(#paint0_linear)"/>
<path d="M153.936 155.304H145.125V180.509H153.936V155.304Z" fill="#6C63FF"/>
<path opacity="0.3" d="M153.936 155.304H145.125V180.509H153.936V155.304Z" fill="black"/>
<path d="M119.635 177.629L119.497 180.509L125.981 181.118L105.822 185.978C105.822 185.978 102.278 185.674 102.887 190.736H107.85L107.949 189.724L148.265 186.888L179.564 194.684H180.071V195.594H185.642C185.642 195.594 186.148 191.748 184.121 190.534C182.093 189.321 171.461 185.168 171.461 185.168L188.478 183.548L191.82 183.65C191.82 183.65 191.72 179.398 189.186 179.094C186.652 178.79 150.882 175.348 150.882 175.348H145.125L143.401 175.865L121.084 176.232C120.71 176.236 120.352 176.383 120.082 176.643C119.812 176.902 119.653 177.255 119.635 177.629Z" fill="#6C63FF"/>
<path opacity="0.1" d="M153.936 155.304V158.226C150.763 158.732 148.771 158.947 148.771 158.947C147.568 159.166 146.348 159.276 145.125 159.276V155.304H153.936Z" fill="black"/>
<path d="M222.361 131.397C220.74 137.875 216.588 140.811 215.774 138.279C215.038 135.97 212.775 123.197 212.391 120.991C212.355 120.781 212.333 120.665 212.333 120.665L211.929 118.035L215.359 118.345L216.383 118.439C216.383 118.439 223.98 124.917 222.361 131.397Z" fill="#C37098"/>
<path d="M90.4268 120.684C90.4268 120.684 86.883 126.656 97.1133 126.858C97.1133 126.858 104.71 127.565 110.392 138.903C116.075 150.241 136.223 160.667 148.782 158.339C148.782 158.339 190.832 153.805 195.859 137.388L199.328 128.478C199.328 128.478 213.713 127.372 215.229 127.565C216.745 127.759 215.736 123.418 215.736 123.418L211.987 120.687L203.074 122.205L192.946 131.516L161.331 146.396L130.842 142.041C130.842 142.041 106.735 126.559 106.533 125.846C106.331 125.132 96.809 118.657 96.809 118.657L90.4268 120.684Z" fill="#6C63FF"/>
<path d="M90.0754 117.223V118.743L89.2704 121.076L88.6507 122.893C88.6507 122.893 91.0797 137.775 85.8151 137.875C80.5506 137.974 79.6404 127.952 79.8424 124.718C79.9862 122.448 82.3155 119.133 83.6988 117.355C84.288 116.592 84.7058 116.111 84.7058 116.111L90.0754 117.223Z" fill="#C37098"/>
<path opacity="0.3" d="M119.635 177.629L119.497 180.509L125.981 181.118L105.822 185.978C105.822 185.978 102.278 185.674 102.887 190.736H107.85L107.949 189.724L148.265 186.888L179.564 194.684H180.071V195.594H185.642C185.642 195.594 186.148 191.748 184.121 190.534C182.093 189.321 171.461 185.168 171.461 185.168L188.478 183.548L191.82 183.65C191.82 183.65 191.72 179.398 189.186 179.094C186.652 178.79 150.882 175.348 150.882 175.348H145.125L143.401 175.865L121.084 176.232C120.71 176.236 120.352 176.383 120.082 176.643C119.812 176.902 119.653 177.255 119.635 177.629Z" fill="black"/>
<path opacity="0.4" d="M90.4268 120.684C90.4268 120.684 86.883 126.656 97.1133 126.858C97.1133 126.858 104.71 127.565 110.392 138.903C116.075 150.241 136.223 160.667 148.782 158.339C148.782 158.339 190.832 153.805 195.859 137.388L199.328 128.478C199.328 128.478 213.713 127.372 215.229 127.565C216.745 127.759 215.736 123.418 215.736 123.418L211.987 120.687L203.074 122.205L192.946 131.516L161.331 146.396L130.842 142.041C130.842 142.041 106.735 126.559 106.533 125.846C106.331 125.132 96.809 118.657 96.809 118.657L90.4268 120.684Z" fill="black"/>
<path d="M206.103 119.122L197.438 128.798C176.74 152.741 137.752 143.86 124.128 141.958C110.503 140.056 103.534 119.288 103.534 119.288C104.051 119.343 104.573 119.322 105.083 119.224C107.377 118.832 111.676 116.935 114.18 108.505C117.71 96.6171 102.466 70.7672 98.776 67.914C95.0855 65.0608 95.8878 60.1452 96.2087 49.6669C96.5296 39.1887 105.023 43.1588 105.023 43.1588L118.822 51.4032C152.675 56.1612 170.645 51.8787 170.645 51.8787L186.207 44.4278C193.106 42.6833 194.229 42.8409 198.241 52.1966C202.252 61.5524 195.353 69.6391 195.353 69.6391C172.09 86.9213 175.138 110.557 178.826 119.268C181.316 125.143 192.818 123.034 200.069 121.029C203.585 120.07 206.103 119.122 206.103 119.122Z" fill="#6C63FF"/>
<path opacity="0.1" d="M206.103 119.122L197.438 128.798C176.74 152.741 137.752 143.86 124.128 141.958C110.503 140.056 103.534 119.288 103.534 119.288C104.051 119.343 104.573 119.322 105.083 119.224C107.377 118.832 111.676 116.935 114.18 108.505C117.71 96.6171 102.466 70.7672 98.776 67.914C95.0855 65.0608 95.8878 60.1452 96.2087 49.6669C96.5296 39.1887 105.023 43.1588 105.023 43.1588L118.822 51.4032C152.675 56.1612 170.645 51.8787 170.645 51.8787L186.207 44.4278C193.106 42.6833 194.229 42.8409 198.241 52.1966C202.252 61.5524 195.353 69.6391 195.353 69.6391C172.09 86.9213 175.138 110.557 178.826 119.268C181.316 125.143 192.818 123.034 200.069 121.029C203.585 120.07 206.103 119.122 206.103 119.122Z" fill="black"/>
<path d="M203.063 118.505L194.86 127.759C175.26 150.687 138.339 142.182 125.422 140.36C112.506 138.538 105.924 118.646 105.924 118.646C106.413 118.699 106.906 118.678 107.388 118.586C109.562 118.21 113.632 116.393 116.003 108.323C119.344 96.9324 104.912 72.1827 101.418 69.4512C97.9239 66.7197 98.6764 62.0196 98.9862 52.0059C99.296 41.9921 107.344 45.7798 107.344 45.7798L120.41 53.6647C152.467 58.2182 169.486 54.1209 169.486 54.1209L184.223 46.9824C190.757 45.3236 191.82 45.4646 195.618 54.4222C199.416 63.3799 192.885 71.1266 192.885 71.1266C170.853 87.6706 173.738 110.308 177.243 118.657C179.595 124.284 190.492 122.252 197.358 120.344C200.681 119.415 203.063 118.505 203.063 118.505Z" fill="#6C63FF"/>
<path d="M216.383 118.439C216.383 118.439 212.737 118.135 212.333 120.665L187.111 122.782L180.84 123.297L174.2 100.004L172.936 95.561L176.076 96.5729C176.076 96.5729 177.238 97.9553 178.69 99.592C180.732 101.903 183.352 104.765 184.179 105.177C184.243 105.209 184.304 105.247 184.361 105.29C185.819 106.291 188.331 110.847 188.331 110.847C188.331 110.847 190.763 112.57 193.095 112.365C193.095 112.365 199.181 114.286 202.614 114.795C206.047 115.304 216.383 118.439 216.383 118.439Z" fill="#3F3D56"/>
<path opacity="0.1" d="M203.063 118.505L194.86 127.759C175.26 150.687 138.339 142.182 125.422 140.36C112.506 138.538 105.924 118.646 105.924 118.646C106.413 118.699 106.906 118.678 107.388 118.586C109.175 120.071 110.821 121.718 112.304 123.507C126.587 140.413 148.268 139.299 148.268 139.299C148.268 139.299 179.667 143.042 191.214 125.428C193.12 123.568 195.173 121.864 197.353 120.333C200.681 119.415 203.063 118.505 203.063 118.505Z" fill="black"/>
<path opacity="0.1" d="M216.383 118.439C216.383 118.439 212.737 118.135 212.333 120.665L187.111 122.782L180.84 123.297L174.2 100.004L172.936 95.561L176.076 96.5729C176.076 96.5729 177.238 97.9553 178.69 99.592C180.732 101.903 183.352 104.765 184.179 105.177C184.243 105.209 184.304 105.247 184.361 105.29C185.819 106.291 188.331 110.847 188.331 110.847C188.331 110.847 190.763 112.57 193.095 112.365C193.095 112.365 199.181 114.286 202.614 114.795C206.047 115.304 216.383 118.439 216.383 118.439Z" fill="black"/>
<path opacity="0.1" d="M216.687 118.743C216.687 118.743 213.041 118.439 212.637 120.969L212.391 120.991C212.355 120.781 212.333 120.665 212.333 120.665L211.929 118.035L215.359 118.345L216.687 118.743Z" fill="black"/>
<path opacity="0.1" d="M195.482 138.403C189.396 145.11 177.805 152.862 156.874 152.163C156.874 152.163 119.195 156.924 105.316 128.276C105.316 128.276 99.9433 118.433 89.9896 123.874L89.713 124.024L89.1044 119.772C89.1044 119.772 98.0179 107.825 112.298 124.731C126.579 141.638 148.262 140.523 148.262 140.523C148.262 140.523 179.664 144.267 191.211 126.653C191.211 126.653 207.533 110.156 215.218 120.278L215.636 123.349L215.727 124.024C215.727 124.024 207.721 121.389 202.067 128.273L195.482 138.403Z" fill="black"/>
<path d="M89.1099 119.163C89.1099 119.163 98.0233 107.22 112.306 124.123C113.934 126.052 115.732 127.829 117.679 129.434C131.448 140.781 148.265 139.924 148.265 139.924C148.265 139.924 179.664 143.67 191.211 126.056C191.211 126.056 207.533 109.556 215.218 119.678L215.724 123.424C215.724 123.424 207.121 120.571 201.444 128.478C201.444 128.478 193.239 152.771 156.874 151.557C156.874 151.557 119.195 156.315 105.316 127.668C105.316 127.668 99.8464 117.646 89.7185 123.415L89.1099 119.163Z" fill="#6C63FF"/>
<path opacity="0.1" d="M171.21 68.7628L170.479 68.8208C169.702 67.2892 169.506 60.5267 169.788 54.1375L169.182 54.1126C169.049 57.1178 168.764 66.0506 169.893 68.8651C162.739 69.3959 130.964 71.5551 119.627 68.8485C123.549 60.5709 120.719 53.6232 120.689 53.5514L120.136 53.7864C120.163 53.8555 122.861 60.4631 119.165 68.4393C117.319 65.5529 107.568 51.0742 98.8866 52.9569L99.0166 53.5514C107.039 51.8041 116.459 65.4092 118.528 68.5692L118.158 68.4752L118.96 69.2494L119.237 69.6834L119.289 69.5784C120.75 71.1487 127.259 78.8097 126.905 90.2031C126.806 93.4239 128.936 96.313 133.066 98.5635C137.703 101.09 144.013 102.406 149.687 102.406C154.238 102.406 158.382 101.56 160.919 99.8132C162.963 98.4059 163.879 96.4679 163.572 94.2036C161.892 81.8481 171.45 69.4512 171.611 69.2466C184.696 53.5956 195.488 54.7181 195.596 54.7291L195.671 54.1264C195.206 54.0711 184.494 52.9293 171.21 68.7628ZM162.955 94.2838C163.231 96.3352 162.429 98.0272 160.562 99.3127C155.117 103.059 141.382 102.412 133.343 98.0327C130.612 96.5425 127.384 93.9824 127.5 90.2224C127.835 79.4069 122.105 71.8786 120.091 69.5784C132.17 72.1274 163.746 69.935 170.217 69.4484C170.296 69.5529 170.401 69.6357 170.521 69.6889C168.405 72.6942 161.475 83.4821 162.955 94.2838Z" fill="black"/>
<path opacity="0.1" d="M161.231 181.217L174.009 184.922L171.462 185.165L161.231 181.217Z" fill="black"/>
<path opacity="0.1" d="M125.981 181.115L135.199 178.889L123.442 180.877L125.981 181.115Z" fill="black"/>
<path opacity="0.1" d="M90.0754 117.223V118.743L89.2704 121.077C88.197 118.135 85.2618 117.482 83.6932 117.352C84.2825 116.589 84.7002 116.108 84.7002 116.108L90.0754 117.223Z" fill="black"/>
<path d="M104.862 110.847L102.635 110.341C102.635 110.341 102.533 111.251 100.699 111.757C98.8644 112.263 90.7726 114.693 89.6577 114.693C88.5428 114.693 83.4775 114.997 82.9712 117.021C82.9712 117.021 88.9495 116.617 89.8596 121.881L107.18 121.071L104.862 110.847Z" fill="#3F3D56"/>
<path opacity="0.1" d="M104.862 110.847L102.635 110.341C102.635 110.341 102.533 111.251 100.699 111.757C98.8644 112.263 90.7726 114.693 89.6577 114.693C88.5428 114.693 83.4775 114.997 82.9712 117.021C82.9712 117.021 88.9495 116.617 89.8596 121.881L107.18 121.071L104.862 110.847Z" fill="black"/>
<path d="M181.188 165.61C181.188 165.61 186.276 168.513 188.215 171.322C189.555 173.343 190.756 175.452 191.811 177.634C191.811 177.634 195.61 179.293 192.838 173.26C190.066 167.228 181.188 165.61 181.188 165.61Z" fill="#3F3D56"/>
<path d="M181.188 165.61C181.188 165.61 186.276 168.513 188.215 171.322C189.555 173.343 190.756 175.452 191.811 177.634C191.811 177.634 195.61 179.293 192.838 173.26C190.066 167.228 181.188 165.61 181.188 165.61Z" fill="#3F3D56"/>
<path opacity="0.1" d="M181.188 165.61C181.188 165.61 186.276 168.513 188.215 171.322C189.555 173.343 190.756 175.452 191.811 177.634C191.811 177.634 195.61 179.293 192.838 173.26C190.066 167.228 181.188 165.61 181.188 165.61Z" fill="black"/>
<path d="M137.844 51.3147C137.52 51.6935 137.29 52.1441 136.994 52.5423C135.705 54.143 133.276 54.0739 131.428 54.9724C128.9 56.2027 127.677 59.2439 127.749 62.0556C127.821 64.8673 128.936 67.5297 129.981 70.1424C131.027 72.755 132.034 75.481 131.885 78.2872C131.796 79.946 131.304 81.5606 130.814 83.1503C130.496 84.1788 130.111 85.2985 129.187 85.8514C131.955 86.3468 134.758 86.6168 137.57 86.6587C145.637 86.7831 153.706 85.0414 161.735 85.8432C160.768 84.9668 160.047 83.8534 159.642 82.613C159.238 81.3727 159.165 80.0483 159.43 78.771C159.654 77.7647 160.083 76.8191 160.418 75.8432C161.53 72.5635 161.541 69.0107 160.448 65.7244C160.122 64.754 159.701 63.814 159.425 62.8297C158.788 60.5406 158.957 58.1049 158.503 55.7742C158.05 53.4436 156.689 51.0051 154.379 50.4466C151.181 49.6753 148.392 53.0261 145.319 52.1054C142.975 51.4032 140.148 48.633 137.844 51.3147Z" fill="#3F3D56"/>
<g opacity="0.1">
<path opacity="0.1" d="M160.498 75.8791C161.085 74.1389 161.366 72.3102 161.328 70.4741C161.299 72.1061 161.019 73.7239 160.498 75.2709C160.163 76.2468 159.732 77.2062 159.51 78.1987C159.38 78.8004 159.329 79.4167 159.358 80.0317C159.373 79.6198 159.424 79.2099 159.51 78.8069C159.732 77.8006 160.163 76.8551 160.498 75.8791Z" fill="black"/>
<path opacity="0.1" d="M131.973 77.4412C132.048 74.729 131.071 72.0915 130.059 69.5645C129.021 66.9712 127.918 64.3254 127.832 61.5469C127.832 61.7293 127.832 61.9146 127.832 62.0998C127.904 64.9088 129.019 67.5739 130.062 70.1838C130.997 72.5145 131.901 74.9529 131.973 77.4412Z" fill="black"/>
<path opacity="0.1" d="M161.165 85.2183C153.35 84.5686 145.498 86.2081 137.65 86.0892C135.04 86.0471 132.437 85.8106 129.862 85.3814C129.693 85.5808 129.492 85.7516 129.268 85.8874C132.035 86.3827 134.839 86.6527 137.65 86.6947C145.717 86.8191 153.784 85.0745 161.812 85.8652C161.582 85.664 161.366 85.4479 161.165 85.2183Z" fill="black"/>
</g>
<path d="M150.553 198.292L157.231 199.522L156.772 200.319C156.772 200.319 152.229 200.75 151.059 200.319C149.889 199.887 150.553 198.292 150.553 198.292Z" fill="#3F3D56"/>
<path d="M157.433 141.657C157.433 141.657 185.125 132.932 184.112 127.363C183.1 121.795 158.509 120.452 157.433 121.881C156.357 123.31 157.433 141.657 157.433 141.657Z" fill="#3F3D56"/>
<path opacity="0.2" d="M157.433 141.657C157.433 141.657 185.125 132.932 184.112 127.363C183.1 121.795 158.509 120.452 157.433 121.881C156.357 123.31 157.433 141.657 157.433 141.657Z" fill="black"/>
<path d="M157.433 87.5627L152.177 92.2213L145.49 93.435L133.437 91.9171L126.651 87.2586C126.651 87.2586 127.849 86.996 131.21 86.2467L133.943 85.6413C139.415 84.4248 137.185 75.4119 137.185 75.4119C137.185 75.4119 152.177 67.4163 150.254 77.5379C149.205 83.0535 151.432 85.5334 153.679 86.6614C154.852 87.2245 156.132 87.5318 157.433 87.5627Z" fill="#C37098"/>
<path opacity="0.1" d="M144.558 81.5468C150.993 81.5468 156.21 76.3332 156.21 69.9018C156.21 63.4705 150.993 58.2569 144.558 58.2569C138.122 58.2569 132.906 63.4705 132.906 69.9018C132.906 76.3332 138.122 81.5468 144.558 81.5468Z" fill="black"/>
<path d="M144.558 81.2426C150.993 81.2426 156.21 76.029 156.21 69.5977C156.21 63.1664 150.993 57.9528 144.558 57.9528C138.122 57.9528 132.906 63.1664 132.906 69.5977C132.906 76.029 138.122 81.2426 144.558 81.2426Z" fill="#C37098"/>
<path opacity="0.1" d="M157.433 87.5628L152.177 92.2213L145.49 93.435L133.437 91.9172L126.651 87.2586C126.651 87.2586 127.849 86.996 131.21 86.2468L131.918 86.6532H153.679C154.851 87.2191 156.131 87.5292 157.433 87.5628Z" fill="black"/>
<path d="M142.441 86.9573H154.365C154.365 86.9573 158.445 85.4367 159.762 86.3491C161.079 87.2614 164.827 87.361 165.334 86.9573C165.84 86.5537 173.334 90.7118 176.07 96.573L166.346 104.259L124.108 121.071C124.108 121.071 122.172 117.728 122.891 116.617C123.61 115.506 121.574 113.382 121.574 113.382C121.574 113.382 120.866 109.636 121.574 108.525L112.661 97.3885C112.661 97.3885 118.841 88.3784 120.26 87.4688C120.26 87.4688 120.766 85.9758 121.273 86.0643C121.779 86.1528 130.811 86.3408 130.811 86.3408L131.918 86.9656L142.441 86.9573Z" fill="#3F3D56"/>
<path opacity="0.1" d="M142.441 86.9573H154.365C154.365 86.9573 158.445 85.4367 159.762 86.3491C161.079 87.2614 164.827 87.361 165.334 86.9573C165.84 86.5537 173.334 90.7118 176.07 96.573L175.061 97.372L166.346 104.259L124.108 121.071C124.108 121.071 122.172 117.728 122.891 116.617C123.61 115.506 121.574 113.382 121.574 113.382C121.574 113.382 120.866 109.636 121.574 108.525L112.661 97.3885C112.661 97.3885 118.841 88.3784 120.26 87.4688C120.26 87.4688 120.766 85.9758 121.273 86.0643C121.779 86.1528 130.811 86.3408 130.811 86.3408L131.918 86.9656L142.441 86.9573Z" fill="black"/>
<path d="M116.409 96.2688L112.661 97.3747C112.661 97.3747 103.343 110.037 102.635 110.341C101.927 110.645 107.191 121.071 107.191 121.071C107.191 121.071 109.015 119.653 109.927 118.743C110.84 117.834 121.574 108.514 121.574 108.514L116.409 96.2688Z" fill="#3F3D56"/>
<path opacity="0.1" d="M116.409 96.2688L112.661 97.3747C112.661 97.3747 103.343 110.037 102.635 110.341C101.927 110.645 107.191 121.071 107.191 121.071C107.191 121.071 109.015 119.653 109.927 118.743C110.84 117.834 121.574 108.514 121.574 108.514L116.409 96.2688Z" fill="black"/>
<path opacity="0.1" d="M187.111 122.782L180.84 123.297L174.2 100.004L178.69 99.592C180.732 101.903 183.352 104.765 184.179 105.177C184.243 105.209 184.304 105.247 184.361 105.29C184.641 106.402 184.817 107.538 184.884 108.682C185.493 117.529 186.301 119.263 186.301 119.263C186.301 119.263 186.649 120.689 187.111 122.782Z" fill="black"/>
<path d="M208.178 178.972C208.006 178.947 207.768 178.922 207.478 178.895L207.201 178.87C203.513 178.549 193.405 178.06 193.405 178.06C193.21 177.166 192.967 176.284 192.677 175.417C192.639 175.292 192.594 175.162 192.55 175.032C191.598 172.268 189.803 168.475 186.92 167.535C182.262 166.017 179.528 164.294 181.96 160.446C184.392 156.597 183.175 154.272 183.175 154.272C183.175 154.272 179.808 146.075 178.657 145.063C177.976 144.463 176.292 141.098 175.002 137.955C174.878 137.651 174.753 137.344 174.64 137.043C173.915 135.193 173.384 133.534 173.351 132.71C173.257 130.579 169.431 112.857 168.781 109.86C168.723 109.584 168.689 109.429 168.689 109.429C168.689 109.429 168.689 109.379 168.665 109.288C168.487 108.204 167.519 101.052 172.438 100.112L178.657 99.5394C178.864 99.556 183.689 100.001 184.284 108.663C184.893 117.51 185.7 119.243 185.7 119.243C185.7 119.243 188.234 129.473 188.436 134.933C188.638 140.393 194.664 154.167 194.664 154.167C194.664 154.167 200.589 165.503 201.098 168.441C201.339 169.824 201.602 171.637 202.302 173.108C202.346 173.202 202.393 173.293 202.44 173.385C203.229 174.864 204.518 175.928 206.772 175.729C207.117 175.702 207.463 175.702 207.807 175.729C207.954 175.739 208.101 175.756 208.247 175.782C211.069 176.26 210.128 179.24 208.178 178.972Z" fill="#C37098"/>
<path opacity="0.1" d="M176.69 117.615C176.588 126.13 176.184 133.523 176.184 133.523C176.184 133.523 175.675 135.417 175 137.947C174.098 135.735 173.387 133.659 173.34 132.694C173.232 130.383 168.667 109.429 168.667 109.429C168.667 109.429 168.667 109.379 168.642 109.288L169.273 109.429C169.273 109.429 176.779 109.1 176.69 117.615Z" fill="black"/>
<path d="M176.07 117.615C175.968 126.13 175.564 133.523 175.564 133.523C175.564 133.523 175.174 134.977 174.626 137.043C173.426 141.557 171.456 148.997 171.107 150.529C170.601 152.741 163.915 168.342 163.915 168.342C163.915 168.342 162.595 173.103 162.595 174.316C162.595 175.53 161.682 180.399 161.682 180.399V184.75C161.682 184.75 161.682 188.817 161.444 191.532C161.422 191.751 161.4 191.961 161.38 192.157C161.278 193.02 161.148 193.664 160.974 193.86C160.268 194.673 157.228 199.531 157.228 199.531C157.228 199.531 156.835 199.531 156.232 199.517C154.849 199.475 152.337 199.309 150.879 198.646C150.451 198.493 150.087 198.201 149.844 197.817C149.103 196.337 149.568 192.79 149.767 191.51C149.811 191.212 149.844 191.035 149.844 191.035C149.844 191.035 149.844 191.002 149.869 190.941C150.104 189.954 152.113 181.402 151.062 179.495C149.955 177.471 153.596 173.119 153.596 173.119C153.596 173.119 155.518 166.537 155.419 164.109C155.419 164.109 158.155 152.163 157.444 148.823C157.231 147.814 157.402 145.182 157.745 141.992C158.191 137.925 158.913 132.951 159.474 129.302C159.931 126.324 160.282 124.226 160.282 124.226C160.282 124.226 160.113 124.173 159.845 124.112C159.142 123.952 157.745 123.739 156.938 124.325C155.831 125.135 156.227 115.721 156.227 115.721L165.231 108.682L168.667 109.429C168.9 109.422 169.133 109.431 169.364 109.454C171.232 109.62 176.153 110.706 176.07 117.615Z" fill="#C37098"/>
<path d="M210.59 180.324C210.438 180.522 210.243 180.683 210.02 180.794C208.687 181.505 201.596 183.631 198.354 183.224C196.623 183.021 194.923 182.612 193.289 182.005C192.909 181.864 192.539 181.697 192.182 181.505H192.165C191.532 181.082 190.6 177.266 190.398 176.418C190.376 176.31 190.359 176.249 190.359 176.249C190.359 176.249 186.209 167.955 184.585 170.684L185.692 184.25H184.173C184.173 184.25 183.971 170.783 180.223 167.139C180.223 167.139 179.138 165.154 181.437 165.724C183.736 166.293 189.239 169.976 189.847 172.102C190.272 173.4 190.828 174.652 191.507 175.837C191.939 176.622 192.271 177.161 192.271 177.161L207.165 178.665L210.504 179C210.504 179 211.041 179.683 210.59 180.324Z" fill="#3F3D56"/>
<path opacity="0.1" d="M210.59 180.324C210.438 180.522 210.244 180.683 210.02 180.794C208.687 181.505 201.596 183.631 198.354 183.224C196.623 183.021 194.923 182.612 193.289 182.005C192.909 181.864 192.539 181.697 192.182 181.505H192.166C195.422 180.924 202.614 179.752 207.24 179.846C208.659 179.857 209.84 180.012 210.59 180.324Z" fill="black"/>
<path opacity="0.1" d="M207.171 178.353C207.171 178.519 207.171 178.693 207.187 178.873C203.5 178.552 193.391 178.063 193.391 178.063C193.167 177.033 192.882 176.017 192.536 175.021C195.198 173.802 199.01 172.489 202.293 173.103C203.065 174.726 204.371 175.937 206.764 175.724C207.108 175.696 207.454 175.696 207.799 175.724C207.383 176.538 207.167 177.439 207.171 178.353Z" fill="black"/>
<path opacity="0.1" d="M207.475 178.654C207.475 178.732 207.475 178.815 207.475 178.895L207.198 178.87C203.511 178.549 193.402 178.06 193.402 178.06C193.207 177.167 192.964 176.284 192.675 175.417C195.297 174.195 199.126 172.835 202.443 173.39C203.231 174.869 204.52 175.934 206.775 175.735C207.119 175.708 207.465 175.708 207.81 175.735C207.957 175.744 208.104 175.762 208.25 175.787C207.742 176.658 207.475 177.647 207.475 178.654Z" fill="black"/>
<path d="M207.171 178.654C207.169 179.047 207.202 179.439 207.267 179.827H207.234L193.289 182.005C192.909 181.864 192.539 181.697 192.182 181.505H192.165C191.532 181.082 190.6 177.266 190.398 176.418C190.719 176.243 191.095 176.047 191.518 175.837C194.545 174.325 199.936 172.179 203.931 173.924C203.931 173.924 207.173 175.397 208.388 175.165C208.382 175.154 207.182 176.396 207.171 178.654Z" fill="#3F3D56"/>
<path opacity="0.1" d="M161.383 192.149C161.281 193.011 161.151 193.656 160.977 193.852C160.271 194.665 157.231 199.522 157.231 199.522C157.231 199.522 156.833 199.522 156.221 199.508C156.141 198.201 155.643 196.044 153.28 195.997C151.413 195.961 150.926 197.366 150.868 198.638C150.44 198.485 150.076 198.193 149.833 197.808C149.092 196.329 149.557 192.782 149.756 191.502C151.087 191.964 156.285 193.573 161.383 192.149Z" fill="black"/>
<path opacity="0.1" d="M161.447 191.524C161.425 191.742 161.403 191.953 161.383 192.149C161.281 193.011 161.151 193.656 160.977 193.852C160.271 194.665 157.231 199.522 157.231 199.522C157.231 199.522 156.838 199.522 156.235 199.509C156.254 198.441 156.066 195.447 153.28 195.389C151.106 195.348 150.791 197.261 150.868 198.638C150.44 198.485 150.076 198.193 149.833 197.808C149.092 196.329 149.557 192.782 149.756 191.502C149.8 191.203 149.833 191.026 149.833 191.026C149.833 191.026 149.833 190.993 149.858 190.932C151.341 191.433 156.454 192.945 161.447 191.524Z" fill="black"/>
<path d="M149.429 191.071C149.429 191.071 155.861 193.65 161.939 191.676L162.304 198.812C162.304 198.812 156.467 200.858 156.218 200.194C156.218 200.194 156.672 195.771 153.28 195.707C149.889 195.643 151.051 200.332 151.051 200.332C151.051 200.332 148.469 199.536 148.519 198.878C148.569 198.22 148.89 191.693 149.429 191.071Z" fill="#3F3D56"/>
<path opacity="0.1" d="M179.249 99.8353C173.489 98.1156 169.97 107.676 169.373 109.445C169.312 109.622 169.282 109.722 169.282 109.722C169.107 109.761 168.933 109.802 168.767 109.849C158.841 112.451 159.439 121.461 159.834 124.085C159.131 123.924 157.734 123.711 156.927 124.297C155.82 125.107 156.216 115.694 156.216 115.694L165.231 108.682L168.667 109.429C168.667 109.429 168.667 109.379 168.642 109.288C168.465 108.204 167.497 101.052 172.416 100.112L178.635 99.5394L179.249 99.8353Z" fill="black"/>
<path d="M126.133 116.111L124.108 121.071C124.108 121.071 115.701 132.713 123.4 137.875C131.099 143.037 157.427 141.657 157.427 141.657L159.364 124.516C159.364 124.516 156.42 112.276 168.667 109.429C168.667 109.429 172.289 97.6484 178.626 99.5422L166.534 93.435L149.936 99.6113L135.854 107.203L126.133 116.111Z" fill="#3F3D56"/>
<path opacity="0.1" d="M126.133 116.111L124.108 121.071C124.108 121.071 115.701 132.713 123.4 137.875C131.099 143.037 157.427 141.657 157.427 141.657L159.364 124.516C159.364 124.516 156.42 112.276 168.667 109.429C168.667 109.429 172.289 97.6484 178.626 99.5422L166.534 93.435L149.936 99.6113L135.854 107.203L126.133 116.111Z" fill="black"/>
<path opacity="0.1" d="M126.64 125.323C126.64 125.323 129.174 119.326 132.314 117.615C135.453 115.904 126.64 125.323 126.64 125.323Z" fill="black"/>
<path opacity="0.1" d="M137.479 114.488C137.479 114.488 160.067 99.8104 168.272 100.112L137.479 114.488Z" fill="black"/>
<path opacity="0.1" d="M144.652 63.0315C148.846 63.4462 151.881 67.5656 156.039 68.2374C156.389 68.3199 156.756 68.2997 157.095 68.1794C158.158 67.7122 157.806 66.1335 157.283 65.0995C156.498 63.5476 155.711 61.9966 154.924 60.4465C154.343 59.3019 153.734 58.1242 152.752 57.2947C151.922 56.6036 150.912 56.1889 149.894 55.8709C145.894 54.5743 141.385 54.248 137.586 56.0479C135.451 57.0625 129.696 62.2629 132.709 64.765C135.409 67.0099 141.484 62.7163 144.652 63.0315Z" fill="black"/>
<path d="M144.652 62.7274C148.846 63.1421 151.881 67.2643 156.039 67.9334C156.389 68.0158 156.756 67.9956 157.095 67.8753C158.158 67.4081 157.806 65.8294 157.283 64.7954C156.498 63.2435 155.711 61.6925 154.924 60.1424C154.343 58.9978 153.734 57.8201 152.752 56.9906C151.922 56.2995 150.912 55.8848 149.894 55.5668C145.894 54.2729 141.385 53.9439 137.586 55.7438C135.451 56.7584 129.696 61.9588 132.709 64.4609C135.409 66.7058 141.484 62.4122 144.652 62.7274Z" fill="#3F3D56"/>
<path opacity="0.1" d="M125.063 114.765C127.627 115.053 130.223 114.769 132.665 113.935L125.063 114.765Z" fill="black"/>
<path opacity="0.1" d="M101.053 112.887C101.053 112.887 102.989 113.164 102.989 114.491C102.989 115.818 101.053 112.887 101.053 112.887Z" fill="black"/>
<path opacity="0.1" d="M102.015 118.033C102.015 118.033 102.369 117.416 102.978 118.585C103.587 119.755 102.015 118.033 102.015 118.033Z" fill="black"/>
<path opacity="0.1" d="M157.095 67.2671C156.756 67.3868 156.389 67.4079 156.039 67.3279C151.889 66.6561 148.846 62.5367 144.652 62.1192C141.482 61.804 135.409 66.0976 132.706 63.8527C132.478 63.6731 132.287 63.4503 132.144 63.197C132.002 62.9437 131.911 62.6648 131.876 62.3763C131.819 62.766 131.866 63.1638 132.012 63.5298C132.157 63.8957 132.397 64.2169 132.706 64.4609C135.409 66.7058 141.482 62.4122 144.652 62.7274C148.843 63.1421 151.881 67.2643 156.039 67.9334C156.389 68.0156 156.756 67.9955 157.095 67.8753C157.696 67.5988 157.842 66.9878 157.762 66.3105C157.747 66.5152 157.678 66.7121 157.56 66.8805C157.443 67.0489 157.282 67.1824 157.095 67.2671Z" fill="black"/>
<path opacity="0.1" d="M152.946 111.95C152.946 111.95 165.323 108.716 168.676 109.429L152.946 111.95Z" fill="black"/>
<path opacity="0.5" d="M89.9952 189.981L90.5872 182.638L96.4327 175.89C96.4327 175.89 90.0533 177.604 82.2491 175.464L88.3879 182.652L88.623 189.981C86.7557 190.189 85.3393 191.189 85.3393 192.395C85.3393 193.75 87.1319 194.85 89.3395 194.85C91.5472 194.85 93.3426 193.744 93.3426 192.395C93.3426 191.181 91.893 190.172 89.9952 189.981Z" fill="#D4DFEC"/>
<path opacity="0.5" d="M82.9629 175.693L87.8872 181.137C88.0963 181.369 88.3524 181.555 88.6385 181.681C88.9246 181.807 89.2343 181.872 89.547 181.87C89.8608 181.87 90.1711 181.804 90.4573 181.675C90.7435 181.546 90.999 181.358 91.2069 181.123L95.8822 175.87C95.8822 175.87 90.0699 177.587 82.9629 175.693Z" fill="#6C63FF"/>
<path opacity="0.5" d="M89.5582 177.355C94.0317 177.355 97.6583 175.964 97.6583 174.247C97.6583 172.531 94.0317 171.14 89.5582 171.14C85.0846 171.14 81.458 172.531 81.458 174.247C81.458 175.964 85.0846 177.355 89.5582 177.355Z" fill="#D4DFEC"/>
<path d="M89.4391 176.948C93.4101 176.948 96.6291 175.843 96.6291 174.48C96.6291 173.116 93.4101 172.011 89.4391 172.011C85.4682 172.011 82.2491 173.116 82.2491 174.48C82.2491 175.843 85.4682 176.948 89.4391 176.948Z" fill="#6C63FF"/>
<path opacity="0.5" d="M91.4973 177.266L90.269 180.487L91.3978 177.275" fill="#6C63FF"/>
<path opacity="0.5" d="M91.5499 176.841L94.7646 167.701C94.7728 167.678 94.7856 167.657 94.8022 167.639C94.8187 167.621 94.8386 167.607 94.8608 167.597C94.883 167.587 94.9069 167.581 94.9312 167.58C94.9556 167.58 94.9798 167.584 95.0025 167.593C95.0456 167.611 95.0802 167.644 95.0988 167.687C95.1174 167.73 95.1185 167.778 95.1021 167.822L91.6634 176.83" fill="#3F3D56"/>
<path d="M92.911 172.973L94.7645 167.701C94.7728 167.678 94.7856 167.657 94.8022 167.639C94.8187 167.621 94.8386 167.607 94.8608 167.597C94.883 167.587 94.9069 167.581 94.9312 167.58C94.9556 167.58 94.9798 167.584 95.0025 167.593C95.0456 167.611 95.0802 167.644 95.0988 167.687C95.1173 167.73 95.1185 167.778 95.1021 167.822L93.124 173.006" fill="#3F3D56"/>
<path d="M93.4533 173.47C94.3226 173.47 95.0274 172.766 95.0274 171.897C95.0274 171.029 94.3226 170.324 93.4533 170.324C92.5839 170.324 91.8792 171.029 91.8792 171.897C91.8792 172.766 92.5839 173.47 93.4533 173.47Z" fill="#6C63FF"/>
<path opacity="0.5" d="M93.4533 173.47C94.3226 173.47 95.0274 172.766 95.0274 171.897C95.0274 171.029 94.3226 170.324 93.4533 170.324C92.5839 170.324 91.8792 171.029 91.8792 171.897C91.8792 172.766 92.5839 173.47 93.4533 173.47Z" fill="white"/>
<path d="M93.6248 172.359C93.9914 172.359 94.2887 172.062 94.2887 171.695C94.2887 171.329 93.9914 171.032 93.6248 171.032C93.2581 171.032 92.9608 171.329 92.9608 171.695C92.9608 172.062 93.2581 172.359 93.6248 172.359Z" fill="#6C63FF"/>
<path opacity="0.25" d="M93.6248 172.359C93.9914 172.359 94.2887 172.062 94.2887 171.695C94.2887 171.329 93.9914 171.032 93.6248 171.032C93.2581 171.032 92.9608 171.329 92.9608 171.695C92.9608 172.062 93.2581 172.359 93.6248 172.359Z" fill="black"/>
<path opacity="0.3" d="M91.9152 172.21C91.9665 172.517 92.1078 172.802 92.3213 173.029C92.5349 173.256 92.811 173.414 93.1146 173.484C93.4183 173.554 93.7358 173.532 94.0271 173.421C94.3184 173.311 94.5702 173.116 94.7508 172.862C93.8334 172.538 92.8821 172.319 91.9152 172.21Z" fill="#6C63FF"/>
<path d="M34.066 115.11H32.4946V150.471H34.066V115.11Z" fill="#535461"/>
<path d="M43.9422 150.363L43.8426 151.956L43.7043 154.203L43.6462 155.14L43.5079 157.391L43.447 158.328L43.3087 160.576L41.7208 186.144C41.6525 187.244 41.1672 188.276 40.3638 189.031C39.5604 189.785 38.4994 190.205 37.3968 190.205H29.1611C28.0586 190.205 26.9975 189.785 26.1941 189.031C25.3907 188.276 24.9055 187.244 24.8372 186.144L23.2492 160.576L23.1109 158.328L23.0528 157.391L22.9117 155.14L22.8536 154.203L22.7153 151.956L22.6157 150.363C22.5968 150.057 22.6408 149.751 22.7449 149.463C22.849 149.175 23.011 148.912 23.2209 148.688C23.4309 148.465 23.6843 148.288 23.9656 148.166C24.2469 148.045 24.5501 147.982 24.8565 147.983H41.7042C42.0104 147.983 42.3133 148.046 42.5942 148.167C42.8752 148.289 43.1283 148.466 43.338 148.689C43.5476 148.912 43.7094 149.176 43.8133 149.464C43.9172 149.752 43.9611 150.058 43.9422 150.363Z" fill="#3F3D56"/>
<path d="M43.8427 151.956L43.7043 154.203H22.8537L22.7153 151.956H43.8427Z" fill="#9D9CB5"/>
<path d="M43.6461 155.14L43.5078 157.391H23.0527L22.9116 155.14H43.6461Z" fill="#9D9CB5"/>
<path d="M43.447 158.328L43.3087 160.576H23.2519L23.1108 158.328H43.447Z" fill="#9D9CB5"/>
<path d="M20.314 128.364C29.4682 134.983 33.2776 145.331 33.2776 145.331C33.2776 145.331 22.2505 144.953 13.0964 138.337C3.9422 131.721 0.132812 121.37 0.132812 121.37C0.132812 121.37 11.1626 121.748 20.314 128.364Z" fill="#6C63FF"/>
<path d="M0.132812 121.37C0.132812 121.37 11.5804 127.728 15.2542 132.981C18.928 138.234 33.2776 145.334 33.2776 145.334" stroke="#535461" stroke-width="2" stroke-miterlimit="10"/>
<path d="M26.2231 115.041C31.2027 118.635 33.2775 124.275 33.2775 124.275C33.2775 124.275 27.2771 124.071 22.2947 120.468C17.3124 116.866 15.2375 111.234 15.2375 111.234C15.2375 111.234 21.2407 111.447 26.2231 115.041Z" fill="#6C63FF"/>
<path d="M15.2375 111.226C15.2375 111.226 21.4676 114.682 23.4677 117.543C25.4679 120.405 33.2775 124.267 33.2775 124.267" stroke="#535461" stroke-width="2" stroke-miterlimit="10"/>
<path d="M40.5173 123.982C34.7963 130.266 33.5846 138.48 33.5846 138.48C33.5846 138.48 41.6515 136.501 47.3753 130.217C53.0991 123.932 54.308 115.719 54.308 115.719C54.308 115.719 46.2411 117.695 40.5173 123.982Z" fill="#6C63FF"/>
<path d="M54.308 115.719C54.308 115.719 46.8525 122.16 44.9602 126.6C43.068 131.041 33.5846 138.489 33.5846 138.489" stroke="#535461" stroke-width="2" stroke-miterlimit="10"/>
<path opacity="0.1" d="M239.574 148.525C239.574 148.525 241.173 150.612 238.835 153.777C236.498 156.943 234.572 159.583 235.352 161.56C235.352 161.56 238.877 155.704 241.746 155.622C244.615 155.539 242.731 152.047 239.574 148.525Z" fill="black"/>
<path opacity="0.1" d="M239.574 148.525C239.714 148.726 239.824 148.947 239.901 149.18C242.7 152.467 244.191 155.539 241.5 155.61C238.993 155.682 235.986 160.161 235.267 161.292C235.289 161.38 235.318 161.465 235.352 161.549C235.352 161.549 238.877 155.693 241.746 155.61C244.615 155.528 242.731 152.047 239.574 148.525Z" fill="black"/>
<path d="M242.545 151.187C242.545 151.922 242.462 152.517 242.36 152.517C242.257 152.517 242.177 151.922 242.177 151.187C242.177 150.452 242.28 150.797 242.382 150.797C242.484 150.797 242.545 150.452 242.545 151.187Z" fill="#3F3D56"/>
<path d="M243.566 152.063C242.919 152.417 242.357 152.63 242.307 152.539C242.258 152.448 242.742 152.091 243.389 151.74C244.036 151.389 243.779 151.646 243.829 151.74C243.879 151.834 244.211 151.712 243.566 152.063Z" fill="#3F3D56"/>
<path d="M231.131 148.525C231.131 148.525 229.532 150.612 231.867 153.777C234.202 156.943 236.13 159.583 235.353 161.56C235.353 161.56 231.828 155.704 228.957 155.622C226.085 155.539 227.974 152.047 231.131 148.525Z" fill="#3F3D56"/>
<path d="M239.574 148.525C239.574 148.525 241.173 150.612 238.835 153.777C236.498 156.943 234.572 159.583 235.352 161.56C235.352 161.56 238.877 155.704 241.746 155.622C244.615 155.539 242.731 152.047 239.574 148.525Z" fill="#D4DFEC"/>
<path opacity="0.1" d="M231.131 148.525C231.131 148.525 229.532 150.612 231.867 153.777C234.202 156.943 236.13 159.583 235.353 161.56C235.353 161.56 231.828 155.704 228.957 155.622C226.085 155.539 227.974 152.047 231.131 148.525Z" fill="black"/>
<path opacity="0.1" d="M231.131 148.525C230.991 148.726 230.881 148.947 230.804 149.18C228.005 152.467 226.514 155.539 229.203 155.61C231.709 155.682 234.716 160.161 235.438 161.292C235.414 161.379 235.386 161.465 235.353 161.549C235.353 161.549 231.828 155.682 228.957 155.61C226.085 155.539 227.974 152.047 231.131 148.525Z" fill="black"/>
<path d="M228.146 151.187C228.146 151.922 228.229 152.517 228.331 152.517C228.434 152.517 228.517 151.922 228.517 151.187C228.517 150.452 228.414 150.797 228.312 150.797C228.209 150.797 228.146 150.452 228.146 151.187Z" fill="#D4DFEC"/>
<path d="M227.139 152.063C227.783 152.417 228.348 152.63 228.398 152.539C228.447 152.448 227.96 152.091 227.316 151.74C226.671 151.389 226.923 151.646 226.876 151.74C226.829 151.834 226.486 151.712 227.139 152.063Z" fill="#D4DFEC"/>
<path d="M243.953 158.724L243.873 159.376L243.763 160.297L243.715 160.681L243.602 161.604L243.555 161.989L243.442 162.909L242.164 173.387C242.05 174.322 240.52 175.046 238.675 175.046H232.019C230.171 175.046 228.644 174.316 228.53 173.387L227.25 162.909L227.139 161.989L227.092 161.604L226.976 160.681L226.931 160.297L226.818 159.376L226.763 158.724C226.699 158.195 227.526 157.748 228.572 157.748H242.164C243.19 157.759 244.02 158.207 243.953 158.724Z" fill="#3F3D56"/>
<path d="M243.876 159.387L243.763 160.308H226.943L226.829 159.387H243.876Z" fill="#9D9CB5"/>
<path d="M243.715 160.692L243.605 161.615H227.103L226.99 160.692H243.715Z" fill="#9D9CB5"/>
<path d="M243.555 162L243.444 162.92H227.261L227.15 162H243.555Z" fill="#9D9CB5"/>
</g>
<defs>
<linearGradient id="paint0_linear" x1="151.034" y1="201.112" x2="151.034" y2="41.4585" gradientUnits="userSpaceOnUse">
<stop stop-color="#808080" stop-opacity="0.25"/>
<stop offset="0.54" stop-color="#808080" stop-opacity="0.12"/>
<stop offset="1" stop-color="#808080" stop-opacity="0.1"/>
</linearGradient>
<clipPath id="clip0">
<rect width="278" height="205" fill="white"/>
</clipPath>
</defs>
</svg>