<svg width="280" height="221" viewBox="0 0 280 221" fill="none" xmlns="http://www.w3.org/2000/svg">
<g clip-path="url(#clip0)">
<path d="M13.2613 111.427C16.5755 104.743 18.45 98.9208 17.448 98.4233C16.4461 97.9258 12.9471 102.941 9.63291 109.626C6.31868 116.31 4.4442 122.132 5.44614 122.63C6.44809 123.127 9.94705 118.112 13.2613 111.427Z" fill="#E0E0E0"/>
<path d="M181.385 194.985C184.699 188.3 186.834 182.607 186.153 182.269C185.472 181.931 182.234 187.076 178.92 193.761C175.605 200.445 173.471 206.138 174.151 206.476C174.832 206.814 178.071 201.669 181.385 194.985Z" fill="#E0E0E0"/>
<path d="M91.04 161.193L84.7935 156.031L67.6003 176.868L73.8469 182.03L91.04 161.193Z" fill="#F55F44"/>
<path opacity="0.05" d="M76.6753 183.692L85.5481 185.78L91.7285 159.475L82.8557 157.387L76.6753 183.692Z" fill="black"/>
<path d="M77.6623 183.924L85.5481 185.78L91.7285 159.474L83.8427 157.619L77.6623 183.924Z" fill="#F55F44"/>
<path d="M17.7481 97.8181L5.14612 123.235L173.865 207.009L186.467 181.592L17.7481 97.8181Z" fill="url(#paint0_linear)"/>
<path d="M174.165 206.403C170.863 204.818 3.02727 121.429 5.44618 122.63C14.7616 108.402 17.4481 98.4233 17.4481 98.4233L186.167 182.197C186.167 182.197 180.242 192.603 174.165 206.403Z" fill="#F5F5F5"/>
<path opacity="0.05" d="M105.134 141.962L91.2249 135.055L79.223 159.262L93.1317 166.168L105.134 141.962Z" fill="black"/>
<path d="M104.529 141.661L91.8296 135.356L79.8277 159.562L92.527 165.868L104.529 141.661Z" fill="#F55F44"/>
<path opacity="0.05" d="M102.11 140.46L93.6438 136.256L81.6419 160.463L90.1081 164.667L102.11 140.46Z" fill="black"/>
<path d="M101.505 140.16L94.2485 136.557L82.2466 160.763L89.5034 164.366L101.505 140.16Z" fill="#F55F44"/>
<path d="M100.528 218.233C101.15 218.233 101.654 217.729 101.654 217.107C101.654 216.484 101.15 215.98 100.528 215.98C99.9065 215.98 99.4026 216.484 99.4026 217.107C99.4026 217.729 99.9065 218.233 100.528 218.233Z" fill="#DBDBDB"/>
<g opacity="0.5">
<path opacity="0.5" d="M12.4625 185.566H11.3083V192.111H12.4625V185.566Z" fill="#47E6B1"/>
<path opacity="0.5" d="M15.1555 189.416V188.261H8.61537V189.416H15.1555Z" fill="#47E6B1"/>
</g>
<g opacity="0.5">
<path opacity="0.5" d="M19.3874 22.7145H18.2333V29.2594H19.3874V22.7145Z" fill="#47E6B1"/>
<path opacity="0.5" d="M22.0804 26.5644V25.4095H15.5403V26.5644H22.0804Z" fill="#47E6B1"/>
</g>
<g opacity="0.5">
<path opacity="0.5" d="M268.683 12.7047H267.529V19.2496H268.683V12.7047Z" fill="#47E6B1"/>
<path opacity="0.5" d="M271.375 16.5546V15.3997H264.835V16.5546H271.375Z" fill="#47E6B1"/>
</g>
<path opacity="0.5" d="M4.72805 97.5786C4.40999 97.44 4.15397 97.1892 4.00872 96.8739C3.86347 96.5587 3.83914 96.201 3.94035 95.8689C3.95673 95.818 3.96704 95.7653 3.97108 95.712C3.98034 95.5599 3.94038 95.4088 3.85713 95.2812C3.77388 95.1535 3.65176 95.0561 3.50886 95.0034C3.36597 94.9506 3.20989 94.9453 3.06376 94.9883C2.91762 95.0312 2.7892 95.1202 2.69751 95.2419C2.66598 95.285 2.63965 95.3318 2.61906 95.3811C2.48054 95.6994 2.22991 95.9556 1.91487 96.101C1.59982 96.2463 1.24237 96.2707 0.910548 96.1694C0.859677 96.153 0.807048 96.1427 0.753759 96.1386C0.601732 96.1294 0.450767 96.1694 0.323226 96.2527C0.195685 96.336 0.0983507 96.4582 0.045638 96.6012C-0.00707461 96.7442 -0.0123597 96.9004 0.0305631 97.0466C0.0734859 97.1929 0.162332 97.3214 0.283948 97.4131C0.327098 97.4447 0.373818 97.471 0.423138 97.4916C0.741196 97.6303 0.997217 97.8811 1.14247 98.1963C1.28771 98.5116 1.31204 98.8693 1.21084 99.2014C1.19446 99.2523 1.18414 99.3049 1.18009 99.3583C1.17084 99.5104 1.2108 99.6615 1.29405 99.7891C1.37731 99.9167 1.49942 100.014 1.64232 100.067C1.78522 100.12 1.94129 100.125 2.08743 100.082C2.23356 100.039 2.36198 99.9501 2.45368 99.8284C2.48521 99.7852 2.51154 99.7385 2.53212 99.6891C2.67064 99.3708 2.92128 99.1146 3.23632 98.9693C3.55136 98.8239 3.90881 98.7996 4.24064 98.9009C4.29151 98.9173 4.34414 98.9276 4.39743 98.9316C4.54945 98.9409 4.70042 98.9009 4.82796 98.8176C4.95551 98.7343 5.05285 98.6121 5.10556 98.4691C5.15827 98.3261 5.16356 98.1699 5.12063 98.0236C5.07771 97.8774 4.98885 97.7489 4.86724 97.6571C4.82408 97.6256 4.77737 97.5992 4.72805 97.5786Z" fill="#4D8AF0"/>
<path opacity="0.5" d="M70.8991 21.7352C70.581 21.5966 70.325 21.3458 70.1797 21.0305C70.0345 20.7152 70.0102 20.3575 70.1114 20.0255C70.1278 19.9746 70.1381 19.9219 70.1421 19.8686C70.1514 19.7164 70.1114 19.5654 70.0282 19.4377C69.9449 19.3101 69.8228 19.2127 69.6799 19.1599C69.537 19.1072 69.3809 19.1019 69.2348 19.1448C69.0886 19.1878 68.9602 19.2767 68.8685 19.3984C68.837 19.4416 68.8107 19.4884 68.7901 19.5377C68.6516 19.856 68.4009 20.1122 68.0859 20.2576C67.7708 20.4029 67.4134 20.4273 67.0816 20.326C67.0307 20.3096 66.9781 20.2993 66.9248 20.2952C66.7728 20.286 66.6218 20.3259 66.4943 20.4093C66.3667 20.4926 66.2694 20.6148 66.2167 20.7578C66.1639 20.9008 66.1587 21.057 66.2016 21.2032C66.2445 21.3494 66.3334 21.478 66.455 21.5697C66.4981 21.6013 66.5448 21.6276 66.5942 21.6482C66.9122 21.7868 67.1682 22.0377 67.3135 22.3529C67.4587 22.6682 67.4831 23.0259 67.3819 23.358C67.3655 23.4089 67.3552 23.4615 67.3511 23.5149C67.3419 23.667 67.3818 23.8181 67.4651 23.9457C67.5483 24.0733 67.6704 24.1707 67.8133 24.2235C67.9562 24.2763 68.1123 24.2815 68.2584 24.2386C68.4046 24.1956 68.533 24.1067 68.6247 23.985C68.6562 23.9418 68.6826 23.8951 68.7031 23.8457C68.8417 23.5274 69.0923 23.2712 69.4073 23.1259C69.7224 22.9805 70.0798 22.9562 70.4117 23.0575C70.4625 23.0738 70.5152 23.0842 70.5684 23.0882C70.7205 23.0975 70.8714 23.0575 70.999 22.9742C71.1265 22.8909 71.2239 22.7687 71.2766 22.6257C71.3293 22.4827 71.3346 22.3265 71.2917 22.1802C71.2487 22.034 71.1599 21.9055 71.0383 21.8137C70.9951 21.7822 70.9484 21.7558 70.8991 21.7352Z" fill="#4D8AF0"/>
<path opacity="0.5" d="M151.689 218.466C151.371 218.327 151.115 218.077 150.97 217.761C150.825 217.446 150.8 217.088 150.901 216.756C150.918 216.705 150.928 216.653 150.932 216.599C150.941 216.447 150.901 216.296 150.818 216.169C150.735 216.041 150.613 215.944 150.47 215.891C150.327 215.838 150.171 215.833 150.025 215.876C149.879 215.919 149.75 216.008 149.659 216.129C149.627 216.172 149.601 216.219 149.58 216.269C149.442 216.587 149.191 216.843 148.876 216.988C148.561 217.134 148.203 217.158 147.872 217.057C147.821 217.04 147.768 217.03 147.715 217.026C147.563 217.017 147.412 217.057 147.284 217.14C147.157 217.223 147.059 217.346 147.007 217.489C146.954 217.632 146.949 217.788 146.992 217.934C147.035 218.08 147.123 218.209 147.245 218.301C147.288 218.332 147.335 218.358 147.384 218.379C147.702 218.518 147.958 218.769 148.104 219.084C148.249 219.399 148.273 219.757 148.172 220.089C148.156 220.14 148.145 220.192 148.141 220.246C148.132 220.398 148.172 220.549 148.255 220.677C148.338 220.804 148.46 220.902 148.603 220.954C148.746 221.007 148.902 221.012 149.049 220.969C149.195 220.927 149.323 220.838 149.415 220.716C149.446 220.673 149.473 220.626 149.493 220.577C149.632 220.258 149.882 220.002 150.197 219.857C150.512 219.711 150.87 219.687 151.202 219.788C151.253 219.805 151.305 219.815 151.359 219.819C151.511 219.828 151.661 219.788 151.789 219.705C151.917 219.622 152.014 219.5 152.067 219.357C152.119 219.214 152.125 219.057 152.082 218.911C152.039 218.765 151.95 218.636 151.828 218.545C151.785 218.513 151.738 218.487 151.689 218.466Z" fill="#4D8AF0"/>
<path opacity="0.5" d="M241.368 187.876C242.643 187.876 243.676 186.842 243.676 185.566C243.676 184.29 242.643 183.256 241.368 183.256C240.093 183.256 239.06 184.29 239.06 185.566C239.06 186.842 240.093 187.876 241.368 187.876Z" fill="#4D8AF0"/>
<path opacity="0.5" d="M39.7773 210.591C41.0521 210.591 42.0856 209.556 42.0856 208.281C42.0856 207.005 41.0521 205.971 39.7773 205.971C38.5025 205.971 37.469 207.005 37.469 208.281C37.469 209.556 38.5025 210.591 39.7773 210.591Z" fill="#47E6B1"/>
<path opacity="0.5" d="M158.269 4.6199C159.544 4.6199 160.578 3.5857 160.578 2.30995C160.578 1.0342 159.544 0 158.269 0C156.995 0 155.961 1.0342 155.961 2.30995C155.961 3.5857 156.995 4.6199 158.269 4.6199Z" fill="#F55F44"/>
<path d="M78.8259 137.635L69.5928 151.494C69.5928 151.494 72.6705 165.739 140.765 165.354C208.859 164.969 214.246 151.494 214.246 151.494L201.55 133.015L162.694 106.45L78.8259 137.635Z" fill="#6C63FF"/>
<path opacity="0.15" d="M78.8259 137.635L69.5928 151.494C69.5928 151.494 72.6705 165.739 140.765 165.354C208.859 164.969 214.246 151.494 214.246 151.494L201.55 133.015L162.694 106.45L78.8259 137.635Z" fill="black"/>
<path d="M275.223 86.2382L154.038 139.752L6.30701 86.2382L141.727 24.6395L208.202 55.3118L210.583 56.4129L275.223 86.2382Z" fill="#6C63FF"/>
<path opacity="0.15" d="M275.223 86.2382L154.038 139.752L6.30701 86.2382L141.727 24.6395L208.202 55.3118L210.583 56.4129L275.223 86.2382Z" fill="black"/>
<path d="M213.091 99.0661L210.783 99.2047L208.201 55.3118L210.583 56.4129L213.091 99.0661Z" fill="#F5F5F5"/>
<path d="M80.3648 86.0457L69.5928 151.494C69.5928 151.494 146.92 126.47 214.246 151.494L204.243 82.1958C204.243 82.1958 113.835 71.031 80.3648 86.0457Z" fill="#6C63FF"/>
<path d="M212.899 112.418C219.061 112.418 224.056 108.97 224.056 104.718C224.056 100.465 219.061 97.018 212.899 97.018C206.737 97.018 201.742 100.465 201.742 104.718C201.742 108.97 206.737 112.418 212.899 112.418Z" fill="#F5F5F5"/>
</g>
<defs>
<linearGradient id="paint0_linear" x1="89.5057" y1="165.122" x2="102.122" y2="139.712" gradientUnits="userSpaceOnUse">
<stop stop-color="#808080" stop-opacity="0.25"/>
<stop offset="0.53514" stop-color="#808080" stop-opacity="0.12"/>
<stop offset="1" stop-color="#808080" stop-opacity="0.1"/>
</linearGradient>
<clipPath id="clip0">
<rect width="280" height="221" fill="white"/>
</clipPath>
</defs>
</svg>
