<svg width="1640" height="407" viewBox="0 0 1640 407" fill="none" xmlns="http://www.w3.org/2000/svg">
<path d="M43.0678 203.024C-34.9322 295.024 10.5678 374.358 43.0678 402.525C77.1378 405.527 95.7637 362.775 81.5679 341.024C75.5679 318.024 64.0679 268.424 66.0679 254.024C68.5679 236.024 229.568 203.024 270.568 141.524C311.568 80.0245 447.068 164.524 493.068 141.524C539.068 118.524 655.183 139.989 738.568 203.024C822.568 266.524 777.068 228.524 800.068 254.024C823.068 279.524 864 382.5 930.068 402.525C992.417 421.422 1134.57 366.524 1255.07 374.524C1375.57 382.524 1388.07 185.024 1388.07 75.5245C1388.07 -33.9755 1628.07 272.025 1638.57 203.024C1649.07 134.024 1515.57 80.5245 1388.07 11.5245C1260.57 -57.4755 1306.07 203.025 1255.07 272.025C1204.07 341.025 930.068 367.5 907.068 272.025C880.654 162.377 771.568 185.024 608.068 111.024C444.568 37.0245 140.568 88.0245 43.0678 203.024Z" fill="#A3F7BF"/>
</svg>
